<svg xmlns="http://www.w3.org/2000/svg" width="75" height="108" viewBox="0 0 75 108">
    <g fill="none" fill-rule="evenodd" stroke="#6FB7D2" stroke-linecap="round" stroke-linejoin="round" stroke-width="2">
        <path d="M69.95 22.41l-8.618 83.97H14.668L6.05 22.41z"/>
        <path d="M25.535 57.937c0 1.823.383 3.555 1.103 5.108H10.213L9.178 52.83h17.46a12.102 12.102 0 0 0-1.103 5.107zM66.822 52.83l-1.035 10.215H49.362a12.102 12.102 0 0 0 1.103-5.108c0-1.822-.383-3.554-1.103-5.107h17.46z"/>
        <path d="M50.458 57.938c0 1.816-.384 3.555-1.1 5.116-1.97 4.348-6.319 7.341-11.358 7.341-5.04 0-9.388-2.993-11.358-7.341-.716-1.56-1.1-3.3-1.1-5.116 0-1.817.384-3.556 1.1-5.117 1.97-4.348 6.319-7.341 11.358-7.341 5.04 0 9.388 2.993 11.358 7.341.716 1.56 1.1 3.3 1.1 5.117zM2.832 12.15h70.335v10.26H2.832zM69.95 12.15H6.05l6.592-10.53h50.716z"/>
    </g>
</svg>
