<svg xmlns="http://www.w3.org/2000/svg" xmlns:xlink="http://www.w3.org/1999/xlink" width="171" height="51" viewBox="0 0 171 51">
    <defs>
        <path id="a" d="M0 .93h16.324v34.133H0z"/>
        <path id="c" d="M1.344.852h22.01v14.384H1.344z"/>
    </defs>
    <g fill="none" fill-rule="evenodd" opacity=".8">
        <g transform="translate(1 7.061)">
            <mask id="b" fill="#fff">
                <use xlink:href="#a"/>
            </mask>
            <path fill="#FFF" d="M3.683.93H-.001v33.295h3.684v-2.64c1.32 2.334 3.055 3.478 5.312 3.478 4.483 0 7.33-4.09 7.33-11.04 0-6.552-2.956-10.864-7.192-10.864-2.639 0-4.586 1.451-5.45 4.045V.93zm-.109 23.048c0-4.266 1.67-6.686 4.415-6.686 2.78 0 4.48 2.552 4.48 6.861 0 4.354-1.597 6.774-4.377 6.774-2.57 0-4.518-2.64-4.518-6.95z" mask="url(#b)"/>
        </g>
        <path fill="#FFF" d="M24.2 24.179V20.88h-3.68v20.407h3.68V32.36c0-5.498.839-8.094 3.44-8.094.834 0 1.563.22 2.257.836l1.321-3.959c-.974-.615-1.98-.924-3.023-.924-1.945 0-3.195 1.276-3.994 3.96M44.165 31.04c0 4.311-1.943 6.949-4.48 6.949-2.777 0-4.409-2.419-4.409-6.774 0-4.31 1.7-6.86 4.478-6.86 2.747 0 4.411 2.418 4.411 6.685zm3.577 10.247V20.924h-3.68v3.342c-.867-2.595-2.78-4.048-5.415-4.048-4.24 0-7.226 4.313-7.226 10.866 0 6.947 2.848 11.038 7.325 11.038 2.258 0 3.996-1.141 5.316-3.472v2.637h3.68zM52.122 41.287h3.68v-9.28c0-2.55.07-4.312.732-5.542.76-1.451 2.15-2.287 3.889-2.287 3.054 0 3.505 2.11 3.505 6.64v10.469h3.717v-12.36c0-2.462 0-4.31-.8-5.848-.937-1.893-2.637-2.86-5.034-2.86-2.813 0-4.724 1.188-6.219 4.047v-3.343h-3.47v20.364zM83.306 7.991v16.275c-.868-2.594-2.78-4.045-5.42-4.045-4.235 0-7.223 4.311-7.223 10.864 0 6.949 2.848 11.04 7.329 11.04 2.257 0 3.994-1.145 5.314-3.478v2.64h3.682V7.99h-3.682zm.103 23.048c0 4.31-1.91 6.95-4.48 6.95-2.779 0-4.412-2.421-4.412-6.774 0-4.31 1.703-6.862 4.483-6.862 2.742 0 4.41 2.42 4.41 6.686zM94.942 20.923h-3.684v10.072c0 7.654 2.19 11.13 7.815 11.13 5.524 0 7.745-3.52 7.745-11.13V20.923h-3.679v11.48c0 3.827-1.111 5.541-4.1 5.541-2.984 0-4.097-1.714-4.097-5.541v-11.48zM111.087 41.287h3.684v-9.28c0-2.55.068-4.312.73-5.542.761-1.451 2.151-2.287 3.888-2.287 3.055 0 3.507 2.11 3.507 6.64v10.469h3.717v-12.36c0-2.462 0-4.31-.8-5.848-.937-1.893-2.637-2.86-5.034-2.86-2.815 0-4.724 1.188-6.218 4.047v-3.343h-3.474v20.364zM145.954 40.012V20.924h-3.68v3.343c-.868-2.596-2.78-4.047-5.42-4.047-4.236 0-7.222 4.311-7.222 10.864 0 6.949 2.848 11.04 7.327 11.04 2.258 0 3.996-1.143 5.316-3.476l-.037 2.683c-.035 3.826-1.078 5.719-4.444 5.719-2.156 0-3.337-.967-3.44-2.685h-3.958c.033 3.828 2.778 6.51 7.327 6.51 6.217 0 8.23-3.254 8.23-10.863m-3.576-8.972c0 4.31-1.944 6.95-4.48 6.95-2.78 0-4.413-2.421-4.413-6.774 0-4.31 1.703-6.862 4.481-6.862 2.745 0 4.412 2.419 4.412 6.686"/>
        <g transform="translate(146.464 .051)">
            <mask id="d" fill="#fff">
                <use xlink:href="#c"/>
            </mask>
            <path fill="#FFF" d="M7.173 9.776c.641-.496 1.59.03 4.395 2.426 1.244-5.063 1.779-6.758 2.764-6.662 1.186.116 6.973 1.585 9.022 1.983C21.491 3.578 17.516.85 12.912.85 6.522.85 1.344 6.098 1.344 12.574c0 .914.108 1.806.304 2.662 1.872-1.869 4.757-4.858 5.525-5.46" mask="url(#d)"/>
        </g>
        <path fill="#FFF" d="M169.838 7.618c-3.483-.338-7.905-1.363-8.49-.883-.74.606-1.675 5.228-2.093 6.782.67.677.742.777 1.18 1.234.17.18-.96 1.258-1.118 1.092-2.37-2.487-4.397-4.721-5.465-4.769-.653-.03-3.21 2.378-5.694 4.422 1.267 5.084 5.806 8.847 11.218 8.847 6.39 0 11.567-5.247 11.567-11.72a11.81 11.81 0 0 0-1.105-5.005"/>
    </g>
</svg>
