<svg xmlns="http://www.w3.org/2000/svg" width="110" height="116" viewBox="0 0 110 116">
    <g fill="#6FB7D2" fill-rule="nonzero">
        <path d="M100.936 18.085c-2.944-7.546-7.199-10.917-15.174-12.018a1.122 1.122 0 0 0-.167-.011 9.12 9.12 0 0 0-1.386-.185c-.021-.003-.036-.016-.057-.018L39.766.248a8.959 8.959 0 0 0-6.638 1.914c-3.212 2.564-3.74 7.262-1.175 10.473a6.192 6.192 0 0 0 3.856 2.251l8.992 1.292c-2.38 10.318-6.57 21.452-10.014 30.568-.227.6.095 1.219.695 1.445.125.046.253.068.38.068.487 0 .957-.321 1.137-.797 3.454-9.143 7.71-20.445 10.115-30.976l33.64 4.052c.045.005.09.007.134.007a6.167 6.167 0 0 0 4.64-1.293 5.194 5.194 0 0 0 .818-7.29 1.161 1.161 0 1 0-1.813 1.448 2.869 2.869 0 0 1-.454 4.027 3.877 3.877 0 0 1-5.441-.61 5.1 5.1 0 0 1-1.09-3.774 5.093 5.093 0 0 1 1.9-3.437c2.888-2.306 7.115-1.83 9.421 1.059 1.366 1.712 2.03 3.858 1.883 5.924-2.015 11.436-6.696 24.995-10.46 35.89-2.544 7.372-4.556 13.195-5.081 16.427-1.138 6.978-.314 29.545-.074 35.45l-14.616-2.1a1.16 1.16 0 1 0-.329 2.299l16 2.3c.055.008.11.012.164.012h.002c.16 0 .31-.04.451-.1.013-.005.026-.003.037-.009l31.772-14.787c.434-.202.699-.648.67-1.126-.157-2.496-3.89-61.337-8.352-72.77zm-25.694-5.287a7.398 7.398 0 0 0 1.147 4.878l-30-3.615-10.225-1.469a3.86 3.86 0 0 1-2.395-1.405 5.136 5.136 0 0 1 .81-7.21 6.642 6.642 0 0 1 4.913-1.425l38.975 4.92c-.157.11-.317.21-.467.33a7.404 7.404 0 0 0-2.758 4.996zm2.203 91.135c-.25-6.327-1.01-28.096.057-34.64.495-3.035 2.577-9.065 4.987-16.045 3.789-10.972 8.503-24.625 10.566-36.358a10.95 10.95 0 0 0-1.893-7.015c3.557 1.595 5.781 4.365 7.612 9.055 4.059 10.403 7.677 64.1 8.145 71.286l-29.474 13.717z"/>
        <path d="M58.323 66.868c-5.167-5.71-10.704-6.91-14.44-6.91-4.694 0-8.814 1.826-11.263 3.85v-.41c.077-3.556 1.403-9.617 9.407-10.257a1.16 1.16 0 0 0-.184-2.314c-10.19.814-11.468 9.027-11.544 12.523l-.007.41c-2.457-2.005-6.545-3.802-11.202-3.802-3.735 0-9.272 1.2-14.44 6.91-8.828 9.755-.2 29.693.812 31.934.994 2.2 8.413 14.501 17.36 16.046 1.115.192 2.142.289 3.052.289 3.38 0 4.812-1.35 5.593-2.293.77.958 2.187 2.298 5.587 2.298.923 0 1.964-.1 3.096-.294 8.947-1.545 16.367-13.846 17.36-16.045 1.012-2.242 9.643-22.175.813-31.935zm-2.93 30.98c-.77 1.707-7.7 13.342-15.637 14.711-1 .174-1.91.26-2.7.26-2.712 0-3.434-.964-4.014-1.74a9.51 9.51 0 0 0-.296-.379c-.297-.35-.407-.472-.407-.472a1.169 1.169 0 0 0-.856-.376h-.024a1.165 1.165 0 0 0-.863.41l-.379.438c-.1.113-.202.242-.312.383-.606.77-1.361 1.732-4.028 1.732-.779 0-1.673-.086-2.657-.257C15.28 111.189 8.353 99.553 7.58 97.845c-.378-.837-9.176-20.612-1.207-29.42 3.637-4.02 8.035-6.144 12.717-6.144 6.258 0 10.812 3.599 11.295 5.07.005.015.016.026.02.04a.708.708 0 0 0 .068.161c.013.026.034.043.049.066.025.04.055.077.085.115.045.052.093.099.144.143.035.027.066.055.103.078.061.04.127.072.194.1.037.015.07.032.108.043.105.032.215.053.326.053h.006c.11 0 .22-.02.33-.052.035-.01.068-.027.1-.04.045-.018.09-.028.131-.053.022-.012.037-.03.058-.044.047-.03.09-.066.133-.102a.98.98 0 0 0 .221-.258c.036-.059.067-.117.092-.18.01-.025.028-.044.037-.07.481-1.472 5.035-5.07 11.293-5.07 4.682 0 9.08 2.124 12.718 6.145 7.972 8.812-.83 28.583-1.208 29.421z"/>
        <path d="M15.939 48.304l.303.148c.292.237 1.147 1.104 1.446 1.74.059.125.127.287.21.485.606 1.424 1.867 4.388 4.34 6.01a6.832 6.832 0 0 0 3.756 1.137c2.137 0 4.087-1.029 5.093-2.684 1.915-3.152.773-6.78-2.844-9.028-3.126-1.945-7.216-1.994-11.79-.11l-.45.186a1.16 1.16 0 0 0-.064 2.116zm11.078-.22c2.525 1.57 3.325 3.811 2.085 5.85-.586.968-1.778 1.568-3.108 1.568-.871 0-1.73-.261-2.48-.755-1.887-1.238-2.962-3.766-3.477-4.977a14.84 14.84 0 0 0-.247-.565c-.245-.522-.655-1.08-1.078-1.563 3.272-1.066 6.119-.918 8.305.441z"/>
    </g>
</svg>
