<svg xmlns="http://www.w3.org/2000/svg" width="118" height="93" viewBox="0 0 118 93">
    <g fill="#6FB7D2" fill-rule="evenodd">
        <path fill-rule="nonzero" d="M57.397 19.378L21.661 6.37a1.308 1.308 0 0 0-1.472.42c-4.672 5.961-7.557 10.402-8.574 13.2-4.298 11.868 1.415 25.029 13.02 29.993l-13.09 35.961-9.535-3.471a1.304 1.304 0 0 0-.892 2.45l21.524 7.836a1.304 1.304 0 0 0 .892-2.451l-9.537-3.472 13.086-35.953c12.09 3.714 24.966-2.719 29.257-14.616 1.02-2.802 1.663-8.058 1.914-15.622a1.303 1.303 0 0 0-.857-1.268zM53.89 35.376a21.19 21.19 0 1 1-39.823-14.493c.613-1.683 2.433-5.076 7.595-11.736l33.953 12.358c-.326 8.412-1.112 12.185-1.725 13.871z"/>
        <path d="M17.527 36.265c-.206.395-.196.867.026 1.253a18.89 18.89 0 0 0 34.166-2.989 1.303 1.303 0 0 0-1.34-1.742L18.57 35.57a1.304 1.304 0 0 0-1.043.695z"/>
        <path fill-rule="nonzero" d="M115.991 82.474l-9.537 3.472-13.089-35.962c11.605-4.966 17.317-18.125 13.02-29.994-1.018-2.8-3.905-7.242-8.575-13.198a1.303 1.303 0 0 0-1.472-.42L60.603 19.377c-.53.192-.876.705-.857 1.268.251 7.568.896 12.824 1.915 15.622 4.272 11.914 17.164 18.356 29.256 14.617l13.086 35.953-9.537 3.471a1.304 1.304 0 1 0 .892 2.451l21.524-7.835a1.304 1.304 0 0 0-.891-2.45v-.001zm-40.924-35.14a21.052 21.052 0 0 1-10.956-11.958c-.613-1.685-1.398-5.454-1.724-13.871L96.338 9.147c5.16 6.654 6.983 10.05 7.597 11.735a21.19 21.19 0 0 1-28.868 26.451z"/>
        <path d="M100.473 36.265a1.304 1.304 0 0 0-1.044-.695l-31.807-2.783a1.304 1.304 0 0 0-1.34 1.741 18.884 18.884 0 0 0 34.165 2.99c.221-.386.231-.858.026-1.253zM60.304 11.876V1.607a1.304 1.304 0 1 0-2.608 0v10.27a1.304 1.304 0 1 0 2.608 0zM53.84 12.715a1.304 1.304 0 0 0 1.997-1.677l-4.696-5.597a1.304 1.304 0 0 0-1.998 1.677l4.697 5.597zM63.16 13.18c.386.002.753-.169 1-.465l4.696-5.597A1.304 1.304 0 0 0 66.86 5.44l-4.696 5.597a1.304 1.304 0 0 0 .997 2.143z"/>
    </g>
</svg>
